# xmcd
#
# Track frame offsets:
#	150
#	32002
#	53007
#	90792
#	114870
#	135450
#	161250
#	180485
#	198842
#
# Disc length: 3026 seconds
#
# Revision: 0
# Processed by: cddbd v1.5.2PL0 Copyright (c) Steve Scherf et al.
# Submitted via: audiograbber 1.83.01
#
DISCID=5a0bd009
DTITLE=Bob Dylan - Street Legal [remastered 1999]
DYEAR=1978
DGENRE=Rock
TTITLE0=Changing Of The Guards
TTITLE1=New Pony
TTITLE2=No Time To Think
TTITLE3=Baby, Stop Crying
TTITLE4=Is Your Love In Vain?
TTITLE5=Señor (Tales Of Yankee Power)
TTITLE6=True Love Tends To Forget
TTITLE7=We Better Talk This Over
TTITLE8=Where Are You Tonight? (Journey Through Dark Heat)
EXTD=
EXTT0=
EXTT1=
EXTT2=
EXTT3=
EXTT4=
EXTT5=
EXTT6=
EXTT7=
EXTT8=
PLAYORDER=
